<svg width="1240" height="1240" viewBox="0 0 1240 1240" fill="none" xmlns="http://www.w3.org/2000/svg">
<rect width="1240" height="1240" fill="white"/>
<path d="M213.507 956.893C203.84 956.893 195.178 955.318 187.52 952.166C179.862 949.014 173.71 944.35 169.065 938.173C164.546 931.996 162.16 924.558 161.909 915.86H196.182C196.684 920.777 198.379 924.558 201.266 927.206C204.154 929.727 207.92 930.988 212.565 930.988C217.336 930.988 221.102 929.916 223.864 927.773C226.626 925.504 228.007 922.416 228.007 918.507C228.007 915.23 226.877 912.519 224.617 910.376C222.483 908.234 219.784 906.468 216.52 905.082C213.381 903.695 208.862 902.119 202.961 900.354C194.424 897.707 187.457 895.06 182.059 892.413C176.66 889.765 172.015 885.857 168.123 880.689C164.232 875.521 162.286 868.776 162.286 860.456C162.286 848.102 166.743 838.458 175.656 831.525C184.569 824.465 196.182 820.935 210.494 820.935C225.056 820.935 236.795 824.465 245.708 831.525C254.621 838.458 259.392 848.165 260.02 860.645H225.182C224.931 856.359 223.362 853.019 220.474 850.623C217.587 848.102 213.883 846.841 209.364 846.841C205.472 846.841 202.334 847.913 199.948 850.056C197.563 852.073 196.37 855.035 196.37 858.943C196.37 863.23 198.379 866.57 202.396 868.965C206.414 871.361 212.691 873.944 221.227 876.718C229.764 879.617 236.669 882.391 241.942 885.038C247.34 887.685 251.985 891.53 255.877 896.573C259.769 901.615 261.715 908.107 261.715 916.049C261.715 923.613 259.769 930.483 255.877 936.66C252.111 942.838 246.587 947.754 239.305 951.41C232.024 955.065 223.424 956.893 213.507 956.893ZM269.48 902.813C269.48 891.845 271.676 882.264 276.071 874.071C280.59 865.877 286.804 859.573 294.714 855.161C302.748 850.749 311.912 848.543 322.207 848.543C335.389 848.543 346.374 852.009 355.162 858.943C364.075 865.877 369.913 875.646 372.675 888.253H338.402C335.514 880.184 329.928 876.151 321.642 876.151C315.741 876.151 311.033 878.482 307.519 883.147C304.003 887.685 302.246 894.241 302.246 902.813C302.246 911.385 304.003 918.003 307.519 922.667C311.033 927.206 315.741 929.475 321.642 929.475C329.928 929.475 335.514 925.441 338.402 917.373H372.675C369.913 929.727 364.075 939.434 355.162 946.493C346.248 953.552 335.263 957.082 322.207 957.082C311.912 957.082 302.748 954.876 294.714 950.464C286.804 946.052 280.59 939.749 276.071 931.555C271.676 923.361 269.48 913.78 269.48 902.813ZM432.081 957.082C421.786 957.082 412.497 954.876 404.211 950.464C396.05 946.052 389.585 939.749 384.815 931.555C380.17 923.361 377.847 913.78 377.847 902.813C377.847 891.972 380.232 882.453 385.003 874.26C389.773 865.94 396.302 859.573 404.588 855.161C412.873 850.749 422.163 848.543 432.458 848.543C442.752 848.543 452.042 850.749 460.328 855.161C468.614 859.573 475.141 865.94 479.912 874.26C484.683 882.453 487.068 891.972 487.068 902.813C487.068 913.654 484.62 923.235 479.724 931.555C474.953 939.749 468.362 946.052 459.951 950.464C451.666 954.876 442.375 957.082 432.081 957.082ZM432.081 929.097C438.232 929.097 443.442 926.828 447.711 922.289C452.105 917.751 454.302 911.259 454.302 902.813C454.302 894.366 452.167 887.874 447.899 883.336C443.757 878.798 438.609 876.529 432.458 876.529C426.18 876.529 420.971 878.798 416.828 883.336C412.685 887.748 410.614 894.241 410.614 902.813C410.614 911.259 412.622 917.751 416.64 922.289C420.782 926.828 425.929 929.097 432.081 929.097ZM530.704 867.641C534.47 861.842 539.178 857.304 544.827 854.027C550.476 850.623 556.753 848.921 563.658 848.921V883.147H554.807C546.773 883.147 540.747 884.912 536.73 888.442C532.712 891.845 530.704 897.896 530.704 906.595V955.57H498.502V850.056H530.704V867.641ZM672.452 901.111C672.452 904.136 672.264 907.288 671.887 910.566H599.01C599.513 917.121 601.584 922.163 605.225 925.693C608.991 929.097 613.574 930.798 618.971 930.798C627.006 930.798 632.593 927.395 635.731 920.587H670.004C668.247 927.521 665.045 933.761 660.4 939.308C655.88 944.854 650.169 949.203 643.264 952.355C636.359 955.507 628.639 957.082 620.101 957.082C609.807 957.082 600.643 954.876 592.608 950.464C584.574 946.052 578.296 939.749 573.776 931.555C569.257 923.361 566.997 913.78 566.997 902.813C566.997 891.845 569.194 882.264 573.588 874.071C578.108 865.877 584.385 859.573 592.419 855.161C600.454 850.749 609.682 848.543 620.101 848.543C630.27 848.543 639.309 850.686 647.218 854.972C655.127 859.259 661.279 865.372 665.673 873.314C670.192 881.256 672.452 890.522 672.452 901.111ZM639.497 892.602C639.497 887.055 637.614 882.643 633.848 879.365C630.082 876.088 625.374 874.449 619.725 874.449C614.327 874.449 609.744 876.024 605.978 879.176C602.337 882.328 600.078 886.803 599.199 892.602H639.497ZM715.992 864.994C719.005 860.078 723.336 856.107 728.986 853.081C734.635 850.056 741.1 848.543 748.382 848.543C757.044 848.543 764.89 850.749 771.921 855.161C778.951 859.573 784.474 865.877 788.492 874.071C792.635 882.264 794.707 891.783 794.707 902.624C794.707 913.465 792.635 923.046 788.492 931.366C784.474 939.559 778.951 945.926 771.921 950.464C764.89 954.876 757.044 957.082 748.382 957.082C740.974 957.082 734.509 955.632 728.986 952.733C723.461 949.708 719.13 945.737 715.992 940.82V955.57H683.791V815.641H715.992V864.994ZM761.94 902.624C761.94 894.555 759.681 888.253 755.161 883.714C750.767 879.05 745.306 876.718 738.778 876.718C732.375 876.718 726.914 879.05 722.395 883.714C718 888.379 715.804 894.744 715.804 902.813C715.804 910.881 718 917.247 722.395 921.911C726.914 926.576 732.375 928.908 738.778 928.908C745.181 928.908 750.642 926.576 755.161 921.911C759.681 917.121 761.94 910.692 761.94 902.624ZM838.152 815.641V955.57H805.95V815.641H838.152ZM903.67 957.082C893.375 957.082 884.085 954.876 875.8 950.464C867.64 946.052 861.174 939.749 856.404 931.555C851.758 923.361 849.436 913.78 849.436 902.813C849.436 891.972 851.822 882.453 856.592 874.26C861.362 865.94 867.891 859.573 876.176 855.161C884.462 850.749 893.752 848.543 904.047 848.543C914.341 848.543 923.631 850.749 931.917 855.161C940.202 859.573 946.731 865.94 951.501 874.26C956.271 882.453 958.657 891.972 958.657 902.813C958.657 913.654 956.209 923.235 951.313 931.555C946.542 939.749 939.952 946.052 931.54 950.464C923.254 954.876 913.965 957.082 903.67 957.082ZM903.67 929.097C909.822 929.097 915.031 926.828 919.3 922.289C923.693 917.751 925.891 911.259 925.891 902.813C925.891 894.366 923.757 887.874 919.488 883.336C915.345 878.798 910.198 876.529 904.047 876.529C897.77 876.529 892.559 878.798 888.417 883.336C884.274 887.748 882.202 894.241 882.202 902.813C882.202 911.259 884.211 917.751 888.228 922.289C892.371 926.828 897.518 929.097 903.67 929.097ZM1010.01 848.543C1017.42 848.543 1023.88 850.056 1029.41 853.081C1035.06 856.107 1039.39 860.078 1042.4 864.994V850.056H1074.61V955.381C1074.61 965.087 1072.65 973.849 1068.77 981.664C1065 989.606 1059.16 995.909 1051.26 1000.57C1043.47 1005.24 1033.74 1007.57 1022.07 1007.57C1006.5 1007.57 993.881 1003.85 984.214 996.414C974.548 989.102 969.023 979.144 967.643 966.537H999.468C1000.47 970.571 1002.86 973.723 1006.62 975.992C1010.39 978.387 1015.03 979.584 1020.56 979.584C1027.21 979.584 1032.48 977.631 1036.38 973.723C1040.39 969.941 1042.4 963.827 1042.4 955.381V940.442C1039.26 945.359 1034.93 949.392 1029.41 952.544C1023.88 955.57 1017.42 957.082 1010.01 957.082C1001.35 957.082 993.504 954.876 986.474 950.464C979.444 945.926 973.857 939.559 969.714 931.366C965.697 923.046 963.688 913.465 963.688 902.624C963.688 891.783 965.697 882.264 969.714 874.071C973.857 865.877 979.444 859.573 986.474 855.161C993.504 850.749 1001.35 848.543 1010.01 848.543ZM1042.4 902.813C1042.4 894.744 1040.14 888.379 1035.63 883.714C1031.23 879.05 1025.83 876.718 1019.43 876.718C1013.03 876.718 1007.56 879.05 1003.05 883.714C998.652 888.253 996.455 894.555 996.455 902.624C996.455 910.692 998.652 917.121 1003.05 921.911C1007.56 926.576 1013.03 928.908 1019.43 928.908C1025.83 928.908 1031.23 926.576 1035.63 921.911C1040.14 917.247 1042.4 910.881 1042.4 902.813Z" fill="#F75105"/>
<path d="M615.863 696.255C603.114 696.255 592.198 691.749 583.118 682.736C574.039 673.724 569.499 662.816 569.499 650.013C569.499 637.209 574.039 626.249 583.118 617.132C592.198 608.014 603.114 603.455 615.863 603.455L629.773 590.07C632.864 586.967 636.438 584.542 640.495 582.796C644.552 581.051 648.706 580.177 652.956 580.177C661.842 580.177 669.473 583.475 675.848 590.07C682.223 596.666 685.41 604.426 685.41 613.349V623.242C685.41 631.002 687.922 637.404 692.945 642.447C697.968 647.491 704.343 650.013 712.07 650.013C717.866 650.013 723.082 648.267 727.719 644.775C732.355 641.284 735.639 636.822 737.571 631.39L744.526 612.186C748.003 602.874 753.457 595.211 760.887 589.198C768.316 583.184 777.054 580.177 787.1 580.177C791.35 569.314 794.73 558.063 797.242 546.423C799.754 534.785 801.01 522.757 801.01 510.342C801.01 475.812 792.561 444.439 775.666 416.221C758.769 388.004 736.412 365.748 708.593 349.453V370.671C708.593 383.474 704.053 394.435 694.973 403.552C685.894 412.669 674.979 417.228 662.228 417.228H639.046V463.785C639.046 470.38 636.824 475.909 632.381 480.371C627.937 484.832 622.432 487.064 615.863 487.064H592.681V526.636C592.681 535.172 589.784 542.35 583.988 548.169C578.192 553.989 571.044 556.899 562.544 556.899C557.135 556.899 552.209 555.734 547.765 553.407C543.322 551.079 539.748 547.781 537.044 543.514L499.952 487.064H476.769V510.342C476.769 522.369 472.851 532.65 465.016 541.185C457.18 549.721 447.679 554.765 436.513 556.317C446.559 596.666 468.144 630.076 501.268 656.548C534.391 683.02 572.59 696.255 615.863 696.255ZM662.228 556.899C655.66 556.899 650.154 554.668 645.711 550.206C641.267 545.744 639.046 540.216 639.046 533.62C639.046 527.025 641.267 521.496 645.711 517.034C650.154 512.572 655.66 510.342 662.228 510.342H685.41C691.979 510.342 697.484 512.572 701.928 517.034C706.371 521.496 708.593 527.025 708.593 533.62C708.593 540.216 706.371 545.744 701.928 550.206C697.484 554.668 691.979 556.899 685.41 556.899H662.228ZM716.127 487.064C708.4 487.064 702.315 484.056 697.871 478.043C693.428 472.029 692.365 465.337 694.684 457.965L703.377 432.359C704.923 427.703 707.627 424.017 711.491 421.301C715.354 418.586 719.604 417.228 724.241 417.228C731.969 417.228 738.054 420.235 742.497 426.248C746.94 432.262 748.003 438.954 745.685 446.326L736.991 471.932C735.446 476.588 732.742 480.273 728.878 482.99C725.014 485.706 720.764 487.064 716.127 487.064ZM615.939 719.848C587.088 719.848 559.964 714.351 534.563 703.355C509.167 692.36 487.074 677.439 468.285 658.591C449.496 639.743 434.622 617.578 423.664 592.096C412.703 566.618 407.222 539.392 407.222 510.417C407.222 481.448 412.698 454.21 423.647 428.704C434.597 403.203 449.457 381.019 468.227 362.151C486.997 343.283 509.071 328.348 534.447 317.346C559.821 306.339 586.934 300.835 615.788 300.835C644.639 300.835 671.764 306.333 697.164 317.329C722.561 328.324 744.653 343.245 763.442 362.093C782.232 380.94 797.105 403.105 808.063 428.587C819.024 454.066 824.504 481.292 824.504 510.266C824.504 539.236 819.03 566.474 808.08 591.979C797.131 617.481 782.27 639.665 763.501 658.533C744.73 677.4 722.657 692.335 697.28 703.338C671.907 714.345 644.793 719.848 615.939 719.848Z" fill="#F75105"/>
</svg>
